<svg t="1648499076037" class="icon" viewBox="0 0 1137 1024" version="1.1" xmlns="http://www.w3.org/2000/svg" p-id="1124" width="128" height="128"><path d="M626.346667 573.44a56.888889 56.888889 0 1 1 112.753777 0h341.788445a56.888889 56.888889 0 0 1 56.888889 56.888889V967.111111a56.888889 56.888889 0 0 1-56.888889 56.888889H56.888889a56.888889 56.888889 0 0 1-56.888889-56.888889v-336.782222a56.888889 56.888889 0 0 1 56.888889-56.888889h569.457778zM113.777778 736.369778v113.777778h113.777778v-113.777778H113.777778z m227.555555 0v113.777778h113.777778v-113.777778H341.333333z m796.444445-227.555556h-113.777778c0-213.162667-170.666667-341.333333-341.333333-341.333333s-341.333333 128.170667-341.333334 341.333333H227.555556c0-278.755556 227.555556-455.111111 455.111111-455.111111s455.111111 176.355556 455.111111 455.111111z m-227.555556 0h-113.777778c0-72.590222-56.888889-113.777778-113.777777-113.777778s-113.777778 41.187556-113.777778 113.777778H455.111111c0-138.24 113.777778-227.555556 227.555556-227.555555s227.555556 89.315556 227.555555 227.555555z"></path></svg>
