<svg t="1648499550604" class="icon" viewBox="0 0 1024 1024" version="1.1" xmlns="http://www.w3.org/2000/svg" p-id="5996" width="200" height="200"><path d="M0 64l0 832 960 0L960 64 0 64zM896 832 64 832 64 128l832 0L896 832zM832 384l-128 0L704 256l-64 0L640 192 320 192l0 64L256 256l0 128L128 384l0 384 704 0L832 384zM768 704 192 704 192 448l64 0 64 0L320 384 320 320l64 0L384 256l192 0 0 64 64 0 0 64 0 64 64 0 64 0L768 704zM256 512l64 0 0 128L256 640 256 512zM384 512l64 0 0 128L384 640 384 512zM512 512l64 0 0 128L512 640 512 512zM640 512l64 0 0 128-64 0L640 512z" p-id="5997" ></path></svg>
